<svg version="1.1" id="Layer_1" xmlns="http://www.w3.org/2000/svg" xmlns:xlink="http://www.w3.org/1999/xlink" x="0px" y="0px"
	 width="100%" viewBox="0 0 1184 896" enable-background="new 0 0 1184 896" xml:space="preserve">
<path fill="#FFFFFF" opacity="1.000000" stroke="none" 
	d="
M333.066650,527.941040 
	C333.066650,527.941040 333.189941,527.921326 333.046112,527.370117 
	C332.750031,527.155457 332.453949,526.940735 332.146179,526.891541 
	C332.146179,526.891541 332.306274,526.848145 332.174591,526.282898 
	C331.775421,525.881226 331.376251,525.479614 330.859253,524.580322 
	C330.596893,524.379150 330.334534,524.178040 329.899200,523.394348 
	C329.321136,522.853027 328.743073,522.311646 328.110168,521.881287 
	C328.110168,521.881287 328.233704,521.889404 328.072052,521.338684 
	C327.763733,521.135071 327.455383,520.931458 327.131378,520.884888 
	C327.131378,520.884888 327.284485,520.846497 327.139954,520.290833 
	C326.838654,520.080933 326.537354,519.871033 326.223267,519.843323 
	C326.223267,519.843323 326.393097,519.776123 326.277313,519.175110 
	C325.863953,518.745972 325.450562,518.316833 324.845520,517.244629 
	C312.956757,502.800568 301.068024,488.356506 289.009613,473.350830 
	C288.403168,472.869171 287.796692,472.387512 287.153412,471.257812 
	C286.158783,470.148834 285.164124,469.039886 283.950348,467.283722 
	C280.903625,463.539124 277.826202,459.819061 274.816925,456.044617 
	C269.342743,449.178528 269.359650,449.165039 274.945984,441.741486 
	C280.998718,434.223816 287.051483,426.706177 293.687897,418.846405 
	C300.523346,410.251709 307.358795,401.657013 314.708099,392.803040 
	C315.132294,392.179260 315.556488,391.555450 316.520905,390.624084 
	C317.118103,389.781342 317.715332,388.938599 318.803619,387.843384 
	C319.206970,387.243927 319.610321,386.644470 320.530823,385.728912 
	C320.769104,385.191528 321.007385,384.654144 321.136536,384.181549 
	C321.136536,384.181549 321.236206,384.260162 321.814850,384.075104 
	C322.270599,383.423340 322.726349,382.771576 323.090790,382.040741 
	C323.090790,382.040741 323.123230,382.157043 323.679047,381.887024 
	C324.411682,380.909332 325.144348,379.931610 325.968597,378.950012 
	C325.968597,378.950012 325.947571,378.860779 326.476959,378.555634 
	C327.048828,377.723755 327.620728,376.891876 328.621399,375.882294 
	C328.879425,375.673492 329.013092,375.403198 329.590210,374.745941 
	C330.766388,373.176910 331.942566,371.607880 333.650665,369.780121 
	C334.087708,369.136871 334.524750,368.493652 335.479004,367.567474 
	C335.794891,367.071136 336.110809,366.574799 336.890503,365.826385 
	C337.272156,365.255707 337.653839,364.685059 338.555573,363.775269 
	C338.785828,363.219208 339.016083,362.663147 339.129211,362.164948 
	C339.129211,362.164948 339.225128,362.253662 339.809143,362.060791 
	C340.270447,361.393829 340.731720,360.726868 341.626160,359.879211 
	C341.881500,359.662109 342.011292,359.386017 342.590302,358.702271 
	C344.366608,356.578827 346.142944,354.455353 348.074554,352.146271 
	C347.225067,351.814728 346.791687,351.497803 346.358185,351.497589 
	C325.475555,351.488037 304.592834,351.480408 283.710602,351.579956 
	C282.376892,351.586304 281.047272,352.447418 279.137878,353.222046 
	C276.767181,356.166809 274.396515,359.111572 271.450470,362.382812 
	C264.236237,371.364105 257.022003,380.345398 249.175034,389.651245 
	C243.092026,397.085846 237.009018,404.520416 230.350494,412.288513 
	C227.941803,415.241180 225.341385,418.061157 223.179062,421.184387 
	C221.073288,424.225983 218.570526,425.274353 214.846542,425.163574 
	C207.241745,424.937347 199.619736,425.289368 191.181839,425.291809 
	C188.117188,424.578918 185.052536,423.865997 181.368881,422.723572 
	C179.048157,421.720428 176.727448,420.717255 174.079422,419.251923 
	C171.715790,418.235168 169.352142,417.218384 166.406387,415.873535 
	C166.419220,413.943695 166.432053,412.013855 166.852127,409.532379 
	C168.037201,405.290039 168.927048,400.931122 170.536346,396.856293 
	C171.299988,394.922729 173.436844,393.531464 175.682831,391.966156 
	C182.446838,389.405701 185.591064,384.657166 184.947357,377.974548 
	C184.366348,371.942719 179.706375,367.014679 173.878296,366.268738 
	C167.753052,365.484772 162.705765,368.682465 159.707581,375.593018 
	C160.284973,381.527802 157.684235,385.436920 152.144531,387.485992 
	C152.021683,387.531464 151.964188,387.753632 151.110367,388.068481 
	C149.833160,388.816193 148.353256,389.353119 147.316147,390.350525 
	C143.995468,393.543976 140.811325,394.011292 136.395142,391.945435 
	C130.902725,389.376068 125.798759,391.138855 121.279488,396.281281 
	C118.896973,400.885803 117.308640,405.863525 120.653297,410.338348 
	C123.275063,413.845978 122.923874,416.722137 120.682472,420.586334 
	C119.083069,424.251282 117.483665,427.916229 115.376801,431.998657 
	C114.966255,432.996002 114.555710,433.993347 113.845749,435.194855 
	C113.845749,435.194855 113.837097,435.557129 113.041618,435.813751 
	C111.396736,436.014954 109.712982,436.056580 108.113937,436.446045 
	C102.316582,437.857971 98.401810,442.747192 98.159950,448.694885 
	C97.946091,453.953857 101.771744,460.901459 106.941566,461.118103 
	C114.289330,461.425995 115.377235,466.536407 117.675392,471.217896 
	C119.064247,474.046997 120.412262,476.902252 121.946480,479.652130 
	C123.299934,482.078003 123.364334,483.941467 121.409554,486.342010 
	C117.892143,490.661530 118.095123,496.840424 121.262695,501.185852 
	C124.735550,505.950012 131.014145,508.923492 135.608124,506.221710 
	C141.059250,503.015839 144.442322,505.520142 148.400482,508.199249 
	C150.460449,509.593536 152.588760,510.919312 154.804077,512.043762 
	C157.833878,513.581604 159.355652,515.388123 159.231354,519.285828 
	C159.024124,525.783508 164.685791,531.352051 171.008484,532.017944 
	C177.444748,532.695862 182.826828,529.055420 184.618164,522.812317 
	C186.477295,516.332947 183.778885,508.846588 177.552658,507.124390 
	C171.959076,505.577118 170.551300,502.076996 169.493423,497.452454 
	C168.980042,495.208160 168.094879,493.048920 167.351196,490.118958 
	C166.892334,488.745636 166.433472,487.372314 166.020172,485.200592 
	C166.340805,484.048615 166.661438,482.896606 167.684235,481.666138 
	C169.899002,480.554718 172.036911,479.238770 174.343613,478.372101 
	C180.156631,476.188110 186.045746,474.206665 192.733810,472.640503 
	C198.478317,472.634094 204.222809,472.627686 210.854034,472.817261 
	C216.801666,472.149475 221.227722,473.734070 225.309998,478.880310 
	C242.556473,500.621796 260.279602,521.987793 278.047211,543.308777 
	C279.567535,545.133179 282.687653,546.547485 285.082214,546.574219 
	C304.365540,546.789673 323.653107,546.626099 342.939362,546.579224 
	C344.517334,546.575378 346.095337,546.578735 348.835663,546.578735 
	C346.529449,544.037537 345.016022,542.369873 343.460968,540.730713 
	C343.460968,540.730713 343.411316,540.739502 343.283417,540.155457 
	C342.874969,539.738220 342.466492,539.320923 342.018738,538.982361 
	C342.018738,538.982361 342.098694,538.945740 341.941406,538.361877 
	C341.382294,537.806824 340.823181,537.251831 340.185699,536.829102 
	C340.185699,536.829102 340.339417,536.833740 340.227295,536.234924 
	C339.841644,535.787109 339.455994,535.339294 339.027466,534.978210 
	C339.027466,534.978210 339.113220,534.933594 338.954742,534.347900 
	C338.381012,533.804077 337.807251,533.260193 337.159637,532.824219 
	C337.159637,532.824219 337.290070,532.832703 337.126617,532.285461 
	C336.819305,532.083740 336.511963,531.882080 336.184937,531.853943 
	C336.184937,531.853943 336.351624,531.801758 336.211212,531.231628 
	C335.805817,530.826538 335.400391,530.421387 334.890106,529.534790 
	C334.735962,529.210388 334.481506,529.020325 333.961639,528.433533 
	C333.665955,528.227844 333.370300,528.022095 333.066650,527.941040 
M851.013184,484.218811 
	C850.355835,483.773956 849.698547,483.329132 848.843567,482.356293 
	C848.270813,481.889038 847.698059,481.421783 846.882629,480.279297 
	C845.000977,476.459717 843.119263,472.640137 841.034546,468.408417 
	C834.832642,469.556519 828.356262,470.755432 820.625305,472.186554 
	C822.902527,477.514801 824.941467,482.285675 827.086975,487.736298 
	C829.046814,490.207062 830.778320,492.908478 833.003296,495.111511 
	C848.517334,510.472717 882.413635,512.305542 899.861267,498.989410 
	C915.434448,487.103973 919.651733,455.617767 893.283081,445.733612 
	C886.295410,443.114349 879.018433,441.277374 871.929871,438.914276 
	C865.023743,436.612000 857.976196,434.557190 851.392517,431.522217 
	C846.468933,429.252502 844.952271,424.577820 846.308655,419.748688 
	C847.674500,414.886078 851.145264,411.828613 855.722839,410.146027 
	C863.214172,407.392487 870.676758,407.688446 878.124084,410.654602 
	C885.760620,413.696106 889.062622,420.275360 891.969849,427.547394 
	C898.499634,426.186646 904.793945,424.874969 911.429565,423.492188 
	C909.575134,413.524017 905.129456,405.465546 897.245300,399.877563 
	C880.561646,388.052887 862.480835,387.354340 844.188599,395.338898 
	C830.898193,401.140137 824.773254,412.893494 826.073364,427.316925 
	C827.113892,438.861053 835.708557,448.176605 848.980347,452.055664 
	C859.664185,455.178375 870.471985,457.919159 881.030151,461.417023 
	C890.809631,464.656952 893.546570,470.564453 890.280945,480.755737 
	C889.831848,481.496155 889.382812,482.236572 888.470276,483.131409 
	C888.182129,483.329041 888.019409,483.601532 887.315674,484.196228 
	C882.224365,486.166901 877.132996,488.137573 871.182861,489.975677 
	C869.447571,490.006226 867.712280,490.036804 865.279846,489.834045 
	C860.600769,488.128601 855.921631,486.423126 851.098145,484.904327 
	C851.098145,484.904327 851.283386,484.758118 851.013184,484.218811 
M233.487518,389.251526 
	C233.432526,378.852539 233.377533,368.453552 233.621017,357.257050 
	C233.621017,355.510803 233.621017,353.764526 233.621017,351.843597 
	C220.043304,351.843597 207.037186,351.843597 193.159470,351.859955 
	C192.808792,353.036652 192.157013,354.212158 192.152435,355.390198 
	C192.080154,373.979584 192.083527,392.569244 192.105270,411.158844 
	C192.106354,412.087524 192.432449,413.015808 192.638000,414.107788 
	C199.164383,414.107788 205.468689,414.227478 211.761993,414.017181 
	C213.197433,413.969177 215.010590,413.137238 215.937180,412.055573 
	C219.811813,407.532288 223.415131,402.776581 227.075729,398.070129 
	C227.075729,398.070129 227.081467,398.122894 227.646271,397.790985 
	C228.566223,396.569031 229.486176,395.347076 230.870438,393.869141 
	C231.268494,393.294678 231.666550,392.720184 232.669342,391.868195 
	C232.852814,391.256592 233.036301,390.644989 233.487518,389.251526 
M205.194656,483.938385 
	C200.913376,483.938385 196.632080,483.938385 192.274811,483.938385 
	C192.274811,504.987000 192.274811,525.584656 192.274811,546.636169 
	C205.821960,546.636169 219.109604,546.651428 232.396606,546.565735 
	C232.813278,546.563049 233.223236,545.518188 233.754715,544.050354 
	C233.675583,540.382568 233.596466,536.714844 233.761597,532.224121 
	C233.685455,530.804688 233.609314,529.385254 233.719238,527.055298 
	C233.601608,522.381165 233.483978,517.707092 233.635376,512.270874 
	C233.131149,510.084259 232.626907,507.897614 231.856873,505.107025 
	C226.877792,499.072968 221.898712,493.038910 216.808411,486.418945 
	C216.211548,485.931305 215.614685,485.443665 214.492340,484.312561 
	C211.647507,484.256287 208.802689,484.200012 205.194656,483.938385 
M429.103638,497.654633 
	C430.002594,498.576233 430.901581,499.497833 432.024933,500.986420 
	C433.018616,501.990417 434.012268,502.994385 435.327362,504.725342 
	C436.224640,505.087067 437.120270,505.759125 438.019440,505.763947 
	C451.341278,505.835327 464.665009,505.902466 477.983582,505.683929 
	C479.231689,505.663422 481.110931,503.934662 481.564636,502.610870 
	C483.551880,496.812286 485.121979,490.870728 487.126465,484.230896 
	C487.590881,481.752472 488.893341,480.798035 491.586517,480.832123 
	C504.239594,480.992371 516.896851,481.010193 529.549805,480.855164 
	C532.462219,480.819458 533.531677,481.845123 534.287903,484.552246 
	C535.939697,490.465332 537.943176,496.287506 540.017395,502.069916 
	C540.505249,503.429840 541.791260,505.464935 542.799561,505.518921 
	C548.852234,505.843048 554.930908,505.679779 561.456177,505.679779 
	C560.518860,503.097168 559.798706,501.275177 559.191711,499.416199 
	C548.106323,465.466461 536.984375,431.528351 526.035583,397.534546 
	C524.917603,394.063507 523.606506,392.367737 519.618958,392.609436 
	C513.314880,392.991577 506.966522,392.826843 500.644409,392.639832 
	C498.066467,392.563599 496.787842,393.359741 495.995941,395.862610 
	C488.382935,419.925415 480.667694,443.955872 472.538483,468.541901 
	C468.670441,480.292297 464.802399,492.042694 460.431793,505.319763 
	C458.516479,502.836609 457.321106,501.286865 455.880951,499.124329 
	C440.808167,482.025146 425.735352,464.925995 410.540649,447.688538 
	C426.142059,429.565796 441.686005,411.509857 457.818146,392.770630 
	C451.122681,392.770630 445.471710,393.047821 439.862610,392.682434 
	C435.422180,392.393158 432.488281,393.936066 429.671570,397.344238 
	C417.894501,411.594238 405.859680,425.631500 393.882568,439.715454 
	C393.025391,440.723450 391.872742,441.480225 390.067535,443.033417 
	C390.067535,425.607574 390.067535,409.352783 390.067535,393.087158 
	C383.442261,393.087158 377.211304,393.087158 371.190125,393.087158 
	C371.190125,430.825073 371.190125,468.216217 371.190125,505.362366 
	C377.717987,505.362366 383.807404,505.362366 390.147949,505.362366 
	C390.147949,488.071991 390.147949,471.160095 390.147949,452.539917 
	C403.718628,468.100128 416.331573,482.562225 429.103638,497.654633 
M689.174194,452.647156 
	C697.267761,441.159363 698.302307,428.552216 694.379944,415.506409 
	C690.770020,403.500000 682.419495,395.971130 670.106812,393.697235 
	C664.120056,392.591614 657.861938,392.770081 651.723328,392.709778 
	C638.437439,392.579315 625.149292,392.669617 611.625610,392.669617 
	C611.625610,430.551300 611.625610,467.919373 611.625610,505.371124 
	C618.145569,505.371124 624.363770,505.371124 630.950073,505.371124 
	C630.950073,492.085785 630.950073,479.165100 630.950073,465.900177 
	C639.276611,465.900177 647.235474,465.780548 655.182190,466.037048 
	C656.296021,466.072968 657.758728,467.754578 658.368469,469.010162 
	C663.737671,480.067078 668.889771,491.229553 674.285034,502.273376 
	C674.966125,503.667511 676.635315,505.461975 677.924744,505.527130 
	C684.471191,505.857910 691.043457,505.679596 698.166565,505.679596 
	C690.892212,490.783722 683.938538,476.544403 677.230591,462.808411 
	C681.391602,459.335571 685.061218,456.272827 689.174194,452.647156 
M802.329529,410.162659 
	C779.779602,380.765900 731.265991,384.518494 713.783508,417.139008 
	C705.639954,432.334106 704.967102,448.641388 707.976746,465.236145 
	C712.256836,488.835754 730.410828,505.118774 755.043457,507.697876 
	C779.334229,510.241180 800.391296,498.417450 809.005310,476.090240 
	C817.711731,453.523346 816.127136,431.438538 802.329529,410.162659 
M1081.473877,487.017700 
	C1071.725098,457.134369 1061.917725,427.269836 1052.308105,397.341827 
	C1051.214722,393.936615 1049.810303,392.515503 1046.092651,392.712341 
	C1039.781494,393.046417 1033.436035,392.954193 1027.113892,392.755249 
	C1024.285034,392.666199 1023.007751,393.658936 1022.147217,396.329926 
	C1010.878235,431.308746 999.504944,466.253937 988.172852,501.212433 
	C987.742432,502.540314 987.463684,503.917389 986.969849,505.830994 
	C992.775146,505.830994 997.924255,505.681091 1003.058838,505.889801 
	C1005.932190,506.006592 1007.225830,504.907593 1007.957520,502.204132 
	C1009.562805,496.272919 1011.527710,490.439636 1013.170471,484.517731 
	C1013.895386,481.904449 1015.073975,480.785156 1018.013855,480.828583 
	C1030.668335,481.015472 1043.328125,481.025970 1055.982788,480.856781 
	C1058.926147,480.817444 1060.070312,481.938202 1060.807983,484.553497 
	C1062.477417,490.472656 1064.285034,496.359406 1066.283936,502.174255 
	C1066.754761,503.544067 1068.149292,505.543823 1069.213135,505.604767 
	C1075.079346,505.940643 1080.974731,505.765350 1087.607910,505.765350 
	C1085.437012,499.062256 1083.605469,493.406738 1081.473877,487.017700 
M956.147705,429.500000 
	C956.147705,454.748505 956.147705,479.997009 956.147705,505.502563 
	C962.916504,505.502563 969.128723,505.502563 975.427185,505.502563 
	C975.427185,467.842804 975.427185,430.518982 975.427185,392.464233 
	C970.333740,392.464233 965.684814,392.657990 961.060791,392.401550 
	C957.506409,392.204437 956.003296,393.097107 956.096069,397.041687 
	C956.342590,407.522369 956.158997,418.013214 956.147705,429.500000 
M591.824097,436.500031 
	C591.824097,422.052521 591.824097,407.605011 591.824097,392.973541 
	C585.087524,392.973541 578.830872,392.973541 572.420105,392.973541 
	C572.420105,430.483521 572.420105,467.729858 572.420105,505.325592 
	C578.953674,505.325592 585.303772,505.325592 591.822021,505.325592 
	C591.822021,482.451019 591.822021,459.975525 591.824097,436.500031 
z"/>
<path fill="#252E3B" opacity="1.000000" stroke="none" 
	d="
M688.952515,452.928650 
	C685.061218,456.272827 681.391602,459.335571 677.230591,462.808411 
	C683.938538,476.544403 690.892212,490.783722 698.166565,505.679596 
	C691.043457,505.679596 684.471191,505.857910 677.924744,505.527130 
	C676.635315,505.461975 674.966125,503.667511 674.285034,502.273376 
	C668.889771,491.229553 663.737671,480.067078 658.368469,469.010162 
	C657.758728,467.754578 656.296021,466.072968 655.182190,466.037048 
	C647.235474,465.780548 639.276611,465.900177 630.950073,465.900177 
	C630.950073,479.165100 630.950073,492.085785 630.950073,505.371124 
	C624.363770,505.371124 618.145569,505.371124 611.625610,505.371124 
	C611.625610,467.919373 611.625610,430.551300 611.625610,392.669617 
	C625.149292,392.669617 638.437439,392.579315 651.723328,392.709778 
	C657.861938,392.770081 664.120056,392.591614 670.106812,393.697235 
	C682.419495,395.971130 690.770020,403.500000 694.379944,415.506409 
	C698.302307,428.552216 697.267761,441.159363 688.952515,452.928650 
M663.777832,410.043732 
	C663.084717,409.698395 662.393799,409.057526 661.698181,409.052338 
	C652.454468,408.982971 643.209717,408.962006 633.966614,409.061737 
	C633.011414,409.072052 632.065430,409.933502 630.854797,411.255035 
	C630.854797,423.341858 630.854797,435.428711 630.854797,447.779480 
	C639.981567,447.779480 648.608643,447.812775 657.235291,447.771057 
	C667.997803,447.718994 674.701721,442.595673 676.347229,433.249969 
	C678.296143,422.181091 674.149292,414.644745 663.777832,410.043732 
z"/>
<path fill="#242C39" opacity="1.000000" stroke="none" 
	d="
M802.555969,410.442871 
	C816.127136,431.438538 817.711731,453.523346 809.005310,476.090240 
	C800.391296,498.417450 779.334229,510.241180 755.043457,507.697876 
	C730.410828,505.118774 712.256836,488.835754 707.976746,465.236145 
	C704.967102,448.641388 705.639954,432.334106 713.783508,417.139008 
	C731.265991,384.518494 779.779602,380.765900 802.555969,410.442871 
M783.568726,417.940979 
	C770.927917,404.891357 749.098450,405.013397 736.663940,418.203156 
	C724.618225,430.980530 722.833496,458.249481 732.948364,474.972107 
	C744.178955,493.539368 771.906616,495.226868 785.360352,478.161835 
	C797.503113,462.759644 796.858215,433.325562 783.568726,417.940979 
z"/>
<path fill="#242D3A" opacity="1.000000" stroke="none" 
	d="
M847.125305,480.954529 
	C847.698059,481.421783 848.270813,481.889038 848.979126,482.971161 
	C849.837585,483.976746 850.560486,484.367432 851.283386,484.758118 
	C851.283386,484.758118 851.098145,484.904327 851.067810,485.164429 
	C850.524231,486.360107 850.010986,487.295685 849.488098,488.248718 
	C853.931396,489.169159 858.132507,490.148438 862.379944,490.846191 
	C863.505920,491.031158 864.774109,490.350525 865.976990,490.067352 
	C867.712280,490.036804 869.447571,490.006226 871.884888,490.305756 
	C877.700256,489.880127 882.813599,489.124420 887.982178,488.360565 
	C887.982178,487.102570 887.982178,485.525757 887.982178,483.948944 
	C888.019409,483.601532 888.182129,483.329041 889.073547,482.992859 
	C890.060913,482.033508 890.445007,481.212677 890.829102,480.391846 
	C893.546570,470.564453 890.809631,464.656952 881.030151,461.417023 
	C870.471985,457.919159 859.664185,455.178375 848.980347,452.055664 
	C835.708557,448.176605 827.113892,438.861053 826.073364,427.316925 
	C824.773254,412.893494 830.898193,401.140137 844.188599,395.338898 
	C862.480835,387.354340 880.561646,388.052887 897.245300,399.877563 
	C905.129456,405.465546 909.575134,413.524017 911.429565,423.492188 
	C904.793945,424.874969 898.499634,426.186646 891.969849,427.547394 
	C889.062622,420.275360 885.760620,413.696106 878.124084,410.654602 
	C870.676758,407.688446 863.214172,407.392487 855.722839,410.146027 
	C851.145264,411.828613 847.674500,414.886078 846.308655,419.748688 
	C844.952271,424.577820 846.468933,429.252502 851.392517,431.522217 
	C857.976196,434.557190 865.023743,436.612000 871.929871,438.914276 
	C879.018433,441.277374 886.295410,443.114349 893.283081,445.733612 
	C919.651733,455.617767 915.434448,487.103973 899.861267,498.989410 
	C882.413635,512.305542 848.517334,510.472717 833.003296,495.111511 
	C830.778320,492.908478 829.046814,490.207062 827.031677,487.000793 
	C826.118958,483.421234 825.259033,480.577911 824.404968,477.732849 
	C823.564941,474.934479 824.284424,473.209167 827.500366,473.003021 
	C831.907471,472.720520 836.308228,472.340759 840.742554,472.000305 
	C842.968567,478.783295 843.281067,479.224640 847.125305,480.954529 
M841.411255,480.482635 
	C841.411255,480.482635 841.522949,480.415649 841.411255,480.482635 
z"/>
<path fill="#8896A8" opacity="1.000000" stroke="none" 
	d="
M1081.623779,487.384460 
	C1083.605469,493.406738 1085.437012,499.062256 1087.607910,505.765350 
	C1080.974731,505.765350 1075.079346,505.940643 1069.213135,505.604767 
	C1068.149292,505.543823 1066.754761,503.544067 1066.283936,502.174255 
	C1064.285034,496.359406 1062.477417,490.472656 1060.807983,484.553497 
	C1060.070312,481.938202 1058.926147,480.817444 1055.982788,480.856781 
	C1043.328125,481.025970 1030.668335,481.015472 1018.013855,480.828583 
	C1015.073975,480.785156 1013.895386,481.904449 1013.170471,484.517731 
	C1011.527710,490.439636 1009.562805,496.272919 1007.957520,502.204132 
	C1007.225830,504.907593 1005.932190,506.006592 1003.058838,505.889801 
	C997.924255,505.681091 992.775146,505.830994 986.969849,505.830994 
	C987.463684,503.917389 987.742432,502.540314 988.172852,501.212433 
	C999.504944,466.253937 1010.878235,431.308746 1022.147217,396.329926 
	C1023.007751,393.658936 1024.285034,392.666199 1027.113892,392.755249 
	C1033.436035,392.954193 1039.781494,393.046417 1046.092651,392.712341 
	C1049.810303,392.515503 1051.214722,393.936615 1052.308105,397.341827 
	C1061.917725,427.269836 1071.725098,457.134369 1081.623779,487.384460 
M1053.090576,462.668549 
	C1052.779663,461.229584 1052.582397,459.754700 1052.140259,458.357269 
	C1048.029907,445.366241 1043.879395,432.387878 1039.735474,419.407471 
	C1038.982666,417.049377 1038.207153,414.698547 1037.026123,411.063995 
	C1031.245728,429.182343 1025.940918,445.809692 1020.454529,463.006378 
	C1031.787720,463.006378 1042.086670,463.006378 1053.090576,462.668549 
z"/>
<path fill="#242C39" opacity="1.000000" stroke="none" 
	d="
M472.981750,467.995575 
	C480.667694,443.955872 488.382935,419.925415 495.995941,395.862610 
	C496.787842,393.359741 498.066467,392.563599 500.644409,392.639832 
	C506.966522,392.826843 513.314880,392.991577 519.618958,392.609436 
	C523.606506,392.367737 524.917603,394.063507 526.035583,397.534546 
	C536.984375,431.528351 548.106323,465.466461 559.191711,499.416199 
	C559.798706,501.275177 560.518860,503.097168 561.456177,505.679779 
	C554.930908,505.679779 548.852234,505.843048 542.799561,505.518921 
	C541.791260,505.464935 540.505249,503.429840 540.017395,502.069916 
	C537.943176,496.287506 535.939697,490.465332 534.287903,484.552246 
	C533.531677,481.845123 532.462219,480.819458 529.549805,480.855164 
	C516.896851,481.010193 504.239594,480.992371 491.586517,480.832123 
	C488.893341,480.798035 487.590881,481.752472 486.646118,484.693634 
	C484.372833,490.263763 482.715088,495.425446 480.700470,500.443848 
	C480.131897,501.860321 478.601013,503.773376 477.370361,503.883667 
	C472.797211,504.293579 468.165222,504.047058 462.447510,504.047058 
	C465.711914,494.257812 468.785889,485.375427 471.595337,476.410156 
	C472.437012,473.724243 472.540222,470.806885 472.981750,467.995575 
M521.363037,463.110443 
	C523.246399,463.110443 525.129761,463.110443 527.392700,463.110443 
	C521.753357,445.530579 516.372559,428.756744 510.664062,410.961456 
	C504.926666,429.012970 499.565491,445.880798 494.090454,463.106873 
	C503.112183,463.106873 511.754913,463.106873 521.363037,463.110443 
z"/>
<path fill="#232B38" opacity="1.000000" stroke="none" 
	d="
M435.005951,503.998383 
	C434.012268,502.994385 433.018616,501.990417 431.929504,500.335449 
	C430.870880,498.797760 429.907684,497.911041 428.944519,497.024323 
	C416.331573,482.562225 403.718628,468.100128 390.147949,452.539917 
	C390.147949,471.160095 390.147949,488.071991 390.147949,505.362366 
	C383.807404,505.362366 377.717987,505.362366 371.190125,505.362366 
	C371.190125,468.216217 371.190125,430.825073 371.190125,393.087158 
	C377.211304,393.087158 383.442261,393.087158 390.067535,393.087158 
	C390.067535,409.352783 390.067535,425.607574 390.067535,443.033417 
	C391.872742,441.480225 393.025391,440.723450 393.882568,439.715454 
	C405.859680,425.631500 417.894501,411.594238 429.671570,397.344238 
	C432.488281,393.936066 435.422180,392.393158 439.862610,392.682434 
	C445.471710,393.047821 451.122681,392.770630 457.818146,392.770630 
	C441.686005,411.509857 426.142059,429.565796 410.540649,447.688538 
	C425.735352,464.925995 440.808167,482.025146 456.013306,499.824097 
	C457.015656,502.859314 456.734070,504.185150 453.711304,504.103577 
	C447.479767,503.935516 441.241455,504.018616 435.005951,503.998383 
z"/>
<path fill="#4A677D" opacity="1.000000" stroke="none" 
	d="
M343.502625,540.702271 
	C345.016022,542.369873 346.529449,544.037537 348.835663,546.578735 
	C346.095337,546.578735 344.517334,546.575378 342.939362,546.579224 
	C323.653107,546.626099 304.365540,546.789673 285.082214,546.574219 
	C282.687653,546.547485 279.567535,545.133179 278.047211,543.308777 
	C260.279602,521.987793 242.556473,500.621796 225.309998,478.880310 
	C221.227722,473.734070 216.801666,472.149475 210.283386,472.357666 
	C203.804886,471.604919 197.897003,471.311707 191.993958,471.009857 
	C191.998779,471.001221 191.981339,471.010986 191.981812,470.623413 
	C191.690598,468.810822 191.398895,467.385834 191.150894,466.174377 
	C192.566254,465.102173 193.770355,464.190033 195.437012,463.189484 
	C207.059540,463.091339 218.219833,463.131653 229.379318,463.053741 
	C236.513748,463.003937 242.417419,465.676971 246.939316,471.068512 
	C256.141846,482.040894 265.220001,493.118622 274.234772,504.245789 
	C275.170746,505.401031 276.097565,507.411682 275.728577,508.632538 
	C273.919830,514.617493 275.242004,519.624512 280.051331,523.380981 
	C284.965546,527.219299 290.290802,526.523499 295.648254,524.013916 
	C298.419067,528.369507 299.661438,533.728699 305.898438,534.098511 
	C306.621582,534.141418 307.852295,535.746216 307.830017,536.600403 
	C307.681671,542.292786 311.397949,541.875366 314.993500,542.099609 
	C316.732849,543.439880 318.620239,544.790039 320.569763,544.886719 
	C326.522430,545.181946 332.512207,544.755737 338.461273,545.085266 
	C341.974518,545.279846 343.218994,543.770020 343.502625,540.702271 
z"/>
<path fill="#4E6D84" opacity="1.000000" stroke="none" 
	d="
M343.481812,540.716492 
	C343.218994,543.770020 341.974518,545.279846 338.461273,545.085266 
	C332.512207,544.755737 326.522430,545.181946 320.569763,544.886719 
	C318.620239,544.790039 316.732849,543.439880 314.993500,542.099609 
	C311.397949,541.875366 307.681671,542.292786 307.830017,536.600403 
	C307.852295,535.746216 306.621582,534.141418 305.898438,534.098511 
	C299.661438,533.728699 298.419067,528.369507 295.701447,524.023682 
	C295.599976,523.670654 295.665283,523.755737 295.961304,523.720215 
	C296.442047,523.354065 296.626770,523.023438 296.828430,522.775452 
	C296.845306,522.858093 296.679626,522.826233 296.981995,522.755127 
	C297.532593,522.144653 297.780853,521.605225 298.013336,521.038879 
	C297.997528,521.011963 298.059784,521.016785 298.270325,520.879822 
	C298.636200,520.450684 298.791504,520.158569 298.945251,519.908386 
	C298.943695,519.950378 298.865997,519.918335 299.246094,519.947266 
	C300.980591,520.137024 302.335052,520.297974 304.523163,520.557922 
	C302.901093,516.571472 301.566101,513.290588 300.081421,509.683868 
	C297.554352,503.211334 292.986176,499.890808 286.493927,500.436829 
	C283.061615,500.725494 281.363251,499.410370 279.500519,497.061890 
	C272.079132,487.705200 264.398895,478.551758 257.070374,469.124176 
	C251.048965,461.378052 243.893906,455.597626 233.936584,453.509277 
	C233.381653,451.981689 230.970947,450.711548 234.132156,449.603455 
	C234.662125,449.417694 234.724609,447.898315 235.360153,446.839783 
	C241.438675,444.936523 247.089630,443.501404 251.089462,449.939056 
	C251.243103,450.186279 251.640503,450.305420 251.946136,450.431274 
	C255.327118,451.823303 260.110626,451.870789 258.547821,457.840393 
	C258.346771,458.608398 259.728394,459.738831 260.262787,460.760986 
	C261.886383,463.866577 263.420990,467.018890 265.065704,470.112915 
	C265.500366,470.930603 266.382263,472.324951 266.762604,472.232788 
	C271.156006,471.167603 273.721222,475.005035 277.320190,476.003723 
	C280.677765,476.935364 282.793091,477.026520 281.338470,472.531586 
	C280.523682,470.013824 281.283417,468.268768 284.169464,467.930939 
	C285.164124,469.039886 286.158783,470.148834 286.895111,471.765350 
	C286.602417,472.985596 286.568024,473.698334 286.533630,474.411072 
	C287.415497,474.244873 288.297394,474.078674 289.179260,473.912476 
	C301.068024,488.356506 312.956757,502.800568 324.963257,517.897705 
	C325.518341,518.959229 325.955719,519.367676 326.393097,519.776123 
	C326.393097,519.776123 326.223267,519.843323 326.265564,520.050293 
	C326.633423,520.453674 326.958954,520.650085 327.284485,520.846497 
	C327.284485,520.846497 327.131378,520.884888 327.207275,521.089783 
	C327.599976,521.492920 327.916840,521.691162 328.233704,521.889404 
	C328.233704,521.889404 328.110168,521.881287 328.121765,522.174683 
	C328.779663,522.970947 329.425903,523.473938 330.072174,523.976868 
	C330.334534,524.178040 330.596893,524.379150 330.961792,525.134155 
	C331.478333,526.074768 331.892303,526.461426 332.306274,526.848145 
	C332.306274,526.848145 332.146179,526.891541 332.211731,527.090576 
	C332.581482,527.500244 332.885712,527.710754 333.189941,527.921326 
	C333.189941,527.921326 333.066650,527.941040 333.160828,528.139282 
	C333.545563,528.546509 333.836121,528.755493 334.126678,528.964539 
	C334.481506,529.020325 334.735962,529.210388 334.979645,530.089966 
	C335.496674,531.030640 335.924164,531.416199 336.351624,531.801758 
	C336.351624,531.801758 336.184937,531.853943 336.243958,532.061768 
	C336.632019,532.457275 336.961029,532.645020 337.290070,532.832703 
	C337.290070,532.832703 337.159637,532.824219 337.156982,533.125671 
	C337.807312,533.929260 338.460266,534.431458 339.113220,534.933594 
	C339.113220,534.933594 339.027466,534.978210 339.057068,535.264465 
	C339.504272,535.978394 339.921844,536.406067 340.339417,536.833740 
	C340.339417,536.833740 340.185699,536.829102 340.175354,537.118042 
	C340.809570,537.919922 341.454132,538.432861 342.098694,538.945740 
	C342.098694,538.945740 342.018738,538.982361 342.053223,539.274048 
	C342.528900,539.956970 342.970093,540.348206 343.411316,540.739502 
	C343.411316,540.739502 343.460968,540.730713 343.481812,540.716492 
z"/>
<path fill="#8A99A9" opacity="1.000000" stroke="none" 
	d="
M956.147095,429.000000 
	C956.158997,418.013214 956.342590,407.522369 956.096069,397.041687 
	C956.003296,393.097107 957.506409,392.204437 961.060791,392.401550 
	C965.684814,392.657990 970.333740,392.464233 975.427185,392.464233 
	C975.427185,430.518982 975.427185,467.842804 975.427185,505.502563 
	C969.128723,505.502563 962.916504,505.502563 956.147705,505.502563 
	C956.147705,479.997009 956.147705,454.748505 956.147095,429.000000 
z"/>
<path fill="#303945" opacity="1.000000" stroke="none" 
	d="
M166.982071,481.744629 
	C166.661438,482.896606 166.340805,484.048615 165.620224,485.605286 
	C162.739700,486.195862 161.192047,487.531525 162.643784,489.781281 
	C163.270172,490.752045 165.743652,490.530853 167.378021,490.851135 
	C168.094879,493.048920 168.980042,495.208160 169.493423,497.452454 
	C170.551300,502.076996 171.959076,505.577118 177.552658,507.124390 
	C183.778885,508.846588 186.477295,516.332947 184.618164,522.812317 
	C182.826828,529.055420 177.444748,532.695862 171.008484,532.017944 
	C164.685791,531.352051 159.024124,525.783508 159.231354,519.285828 
	C159.355652,515.388123 157.833878,513.581604 154.804077,512.043762 
	C152.588760,510.919312 150.460449,509.593536 148.400482,508.199249 
	C144.442322,505.520142 141.059250,503.015839 135.608124,506.221710 
	C131.014145,508.923492 124.735550,505.950012 121.262695,501.185852 
	C118.095123,496.840424 117.892143,490.661530 121.409554,486.342010 
	C123.364334,483.941467 123.299934,482.078003 121.946480,479.652130 
	C120.412262,476.902252 119.064247,474.046997 117.675392,471.217896 
	C115.377235,466.536407 114.289330,461.425995 106.941566,461.118103 
	C101.771744,460.901459 97.946091,453.953857 98.159950,448.694885 
	C98.401810,442.747192 102.316582,437.857971 108.113937,436.446045 
	C109.712982,436.056580 111.396736,436.014954 113.483116,436.143127 
	C114.939888,444.387604 107.622849,439.050507 104.660652,442.863495 
	C105.283005,444.632538 105.822556,447.281494 107.081131,449.527527 
	C110.402954,455.455505 116.678589,455.031952 122.127426,456.405823 
	C121.645470,458.292603 120.524536,460.156586 121.020958,461.344879 
	C123.451546,467.163208 126.239708,472.838715 129.095398,478.466309 
	C129.560974,479.383789 130.984070,480.295380 131.989487,480.323639 
	C132.990036,480.351715 134.447769,479.508240 134.958191,478.618500 
	C136.349854,476.192566 137.347290,473.540466 138.614014,471.433563 
	C138.727127,473.767975 138.727127,475.646790 138.727127,477.761658 
	C140.130630,477.919769 141.402542,478.063080 142.595703,478.572784 
	C141.831161,480.541840 141.145386,482.144501 139.901581,485.051270 
	C142.866333,484.368652 145.339905,484.365143 147.136459,483.260498 
	C150.285248,481.324371 155.220261,481.814270 156.733337,476.937195 
	C160.437759,478.556244 163.709915,480.150421 166.982071,481.744629 
M163.865753,502.696960 
	C162.172516,497.125702 160.479279,491.554443 158.723267,485.776703 
	C154.491699,487.745758 150.820389,489.285980 147.314423,491.139038 
	C144.545212,492.602722 144.053879,497.373077 146.520981,498.901886 
	C152.092758,502.354523 157.812805,505.567902 164.756424,509.629608 
	C164.416107,506.680969 164.231873,505.084656 163.865753,502.696960 
z"/>
<path fill="#7089A1" opacity="1.000000" stroke="none" 
	d="
M272.025848,362.056366 
	C274.396515,359.111572 276.767181,356.166809 279.917236,353.093933 
	C301.643982,352.965851 322.591339,352.965851 343.685974,352.965851 
	C342.948792,355.651337 342.482178,357.351105 342.015564,359.050873 
	C342.011292,359.386017 341.881500,359.662109 341.053467,359.993042 
	C340.062225,360.822449 339.643677,361.538055 339.225128,362.253662 
	C339.225128,362.253662 339.129211,362.164948 338.883667,362.253174 
	C338.437256,362.932404 338.236389,363.523407 338.035522,364.114410 
	C337.653839,364.685059 337.272156,365.255707 336.351288,366.036926 
	C335.528656,366.781799 335.245209,367.316101 334.961792,367.850403 
	C334.524750,368.493652 334.087708,369.136871 332.969299,369.899689 
	C328.023956,369.650757 329.181641,372.786682 329.022400,375.071411 
	C329.013092,375.403198 328.879425,375.673492 328.054077,375.991608 
	C326.973663,377.020874 326.460632,377.940826 325.947571,378.860779 
	C325.947571,378.860779 325.968597,378.950012 325.553528,378.979065 
	C324.466705,380.057739 323.794952,381.107391 323.123230,382.157043 
	C323.123230,382.157043 323.090790,382.040741 322.778229,382.081238 
	C322.055847,382.834534 321.646027,383.547333 321.236206,384.260162 
	C321.236206,384.260162 321.136536,384.181549 320.891083,384.255798 
	C320.434998,384.901733 320.224365,385.473389 320.013733,386.045013 
	C319.610321,386.644470 319.206970,387.243927 318.190247,387.976746 
	C317.044769,389.050598 316.512726,389.991119 315.980682,390.931641 
	C315.556488,391.555450 315.132294,392.179260 314.091187,392.940369 
	C312.300934,393.612915 311.127625,394.148132 309.113434,395.066925 
	C307.567841,392.051880 306.463806,388.775665 304.431641,386.244659 
	C302.331390,383.628815 303.956726,378.506104 298.602417,377.845337 
	C296.180450,375.955017 294.026703,374.247498 291.738953,372.169495 
	C288.163177,371.332550 284.681091,370.300232 281.289764,370.541870 
	C276.993347,370.847961 273.888489,369.165649 272.962341,364.820312 
	C272.760956,363.875397 272.343689,362.976471 272.025848,362.056366 
z"/>
<path fill="#505A66" opacity="1.000000" stroke="none" 
	d="
M121.109665,420.049286 
	C122.923874,416.722137 123.275063,413.845978 120.653297,410.338348 
	C117.308640,405.863525 118.896973,400.885803 121.899704,396.356140 
	C126.578949,398.974884 128.428741,403.515839 131.744186,406.638184 
	C133.355103,408.155273 136.410767,408.021729 138.590073,409.089264 
	C140.276108,409.915131 141.616425,411.446716 142.781891,412.727905 
	C142.207642,414.348175 141.327026,416.156921 141.827148,417.418121 
	C143.888382,422.615997 146.336792,427.662659 148.718658,432.729309 
	C149.268585,433.899078 150.117996,434.928101 151.284637,436.721344 
	C152.831329,432.102905 154.017365,428.561432 155.550781,425.024841 
	C156.169540,425.990936 156.920441,427.139923 156.630157,427.881104 
	C155.295731,431.288177 155.697327,433.302002 159.927063,433.370483 
	C158.783676,438.660919 163.048538,444.068939 168.134079,444.114319 
	C176.088150,444.185333 184.042389,444.237396 191.996170,444.680176 
	C191.991486,447.922852 191.987198,450.782898 191.521851,453.721619 
	C183.803726,453.834534 176.546692,453.865570 169.289673,453.904419 
	C165.293869,453.925812 160.591187,457.651123 158.751709,462.101624 
	C152.056107,463.677338 146.121170,458.742188 144.274887,450.201050 
	C139.382980,452.434357 138.877655,449.352356 139.014755,445.344269 
	C143.513718,440.285736 142.980225,435.405823 139.717545,430.297089 
	C138.566986,428.495575 138.056351,426.285400 136.905701,424.483948 
	C135.427948,422.170441 133.599686,420.080841 131.922424,417.894775 
	C130.156647,419.970612 128.390854,422.046478 126.203590,424.093536 
	C122.364601,424.890625 122.221825,421.905945 121.109665,420.049286 
z"/>
<path fill="#242D3A" opacity="1.000000" stroke="none" 
	d="
M233.517334,533.047058 
	C233.596466,536.714844 233.675583,540.382568 233.251068,544.530029 
	C221.942932,545.026245 211.136810,544.938171 200.334763,545.109131 
	C195.818771,545.180664 193.732346,543.833984 193.847260,538.834961 
	C194.145157,525.875854 193.966248,512.905762 194.355637,499.962067 
	C200.460815,501.014374 204.065735,504.996582 208.012115,508.856934 
	C213.628082,514.350342 219.838562,519.240601 225.855621,524.316711 
	C227.824875,525.978088 229.982925,527.415710 232.050720,529.307373 
	C232.536987,530.788452 233.027161,531.917725 233.517334,533.047058 
z"/>
<path fill="#2E3540" opacity="1.000000" stroke="none" 
	d="
M591.823059,437.000061 
	C591.822021,459.975525 591.822021,482.451019 591.822021,505.325592 
	C585.303772,505.325592 578.953674,505.325592 572.420105,505.325592 
	C572.420105,467.729858 572.420105,430.483521 572.420105,392.973541 
	C578.830872,392.973541 585.087524,392.973541 591.824097,392.973541 
	C591.824097,407.605011 591.824097,422.052521 591.823059,437.000061 
M578.762390,394.078766 
	C578.171692,395.611938 577.070007,397.143555 577.065430,398.678467 
	C576.965820,431.819885 577.008301,464.961700 576.954285,498.103302 
	C576.949402,501.069458 577.013550,503.129059 581.043030,503.131042 
	C585.179749,503.133087 585.037598,500.879059 585.034241,498.015106 
	C584.995789,465.040009 584.931213,432.064392 585.104431,399.090118 
	C585.127197,394.758759 583.658691,393.362701 578.762390,394.078766 
M590.009766,448.500000 
	C590.009766,443.841003 590.009521,439.181976 590.009949,434.522980 
	C590.010315,430.030365 590.011658,425.537750 590.012085,421.045135 
	C590.012451,416.386139 590.164551,411.720703 589.967529,407.070038 
	C589.786133,402.788086 590.900391,398.276184 588.696106,393.066925 
	C586.102844,399.069427 586.550049,501.027222 588.685364,503.808167 
	C589.049438,503.497467 589.721680,503.192810 589.723938,502.883240 
	C589.854431,485.089081 589.929321,467.294525 590.009766,448.500000 
z"/>
<path fill="#6B7785" opacity="1.000000" stroke="none" 
	d="
M194.031067,351.843597 
	C207.037186,351.843597 220.043304,351.843597 233.621017,351.843597 
	C233.621017,353.764526 233.621017,355.510803 233.149597,357.820740 
	C232.453476,359.974426 232.046799,361.562988 232.034256,363.154694 
	C231.963837,372.096283 231.988373,381.038605 231.610153,389.980835 
	C229.610291,389.261322 227.759293,388.829559 226.387680,387.774536 
	C218.321274,381.569977 210.459839,375.095703 202.316940,368.995850 
	C199.902985,367.187531 196.802719,366.295380 194.015091,364.520264 
	C194.019196,359.985901 194.025131,355.914764 194.031067,351.843597 
z"/>
<path fill="#2E3540" opacity="1.000000" stroke="none" 
	d="
M232.054626,528.955627 
	C229.982925,527.415710 227.824875,525.978088 225.855621,524.316711 
	C219.838562,519.240601 213.628082,514.350342 208.012115,508.856934 
	C204.065735,504.996582 200.460815,501.014374 194.349960,499.507202 
	C193.965530,497.871399 194.106232,496.691681 193.939499,495.557159 
	C193.208511,490.583221 194.811096,487.992493 200.284302,488.908081 
	C200.935913,489.017059 201.717712,488.347839 203.801926,487.456635 
	C199.692108,487.095367 197.117676,486.869080 194.543259,486.642792 
	C194.570984,486.271332 194.598709,485.899872 194.626450,485.528412 
	C198.403580,485.066833 202.180725,484.605286 205.957855,484.143738 
	C208.802689,484.200012 211.647507,484.256287 214.788422,484.951050 
	C215.696228,486.061279 216.307922,486.533081 216.919632,487.004852 
	C221.898712,493.038910 226.877792,499.072968 231.959122,505.832764 
	C232.496368,508.716675 232.931366,510.874817 233.366364,513.032959 
	C233.483978,517.707092 233.601608,522.381165 233.389954,527.543152 
	C232.725327,528.339172 232.389969,528.647400 232.054626,528.955627 
z"/>
<path fill="#38414E" opacity="1.000000" stroke="none" 
	d="
M120.896072,420.317810 
	C122.221825,421.905945 122.364601,424.890625 126.074814,424.450806 
	C124.751633,428.269073 123.254860,431.764496 121.478500,435.111511 
	C120.272957,437.383026 120.620232,439.011047 121.760750,441.373810 
	C123.620171,445.225800 126.155731,446.077606 130.004944,445.667023 
	C132.942627,445.353668 135.944626,445.643311 138.918015,445.664673 
	C138.877655,449.352356 139.382980,452.434357 144.274887,450.201050 
	C146.121170,458.742188 152.056107,463.677338 158.964676,462.394928 
	C160.797256,466.771332 162.066223,470.995758 163.343491,475.247772 
	C170.759857,472.045685 177.888641,468.967773 185.003265,466.295105 
	C185.009705,471.884552 188.881897,470.821014 191.981339,471.010986 
	C191.981339,471.010986 191.998779,471.001221 191.982666,471.197571 
	C191.913437,471.641296 191.892700,471.891296 191.904343,472.144043 
	C186.045746,474.206665 180.156631,476.188110 174.343613,478.372101 
	C172.036911,479.238770 169.899002,480.554718 167.333160,481.705383 
	C163.709915,480.150421 160.437759,478.556244 156.590546,476.636658 
	C154.580200,471.534363 153.144928,466.757446 151.709656,461.980560 
	C151.175034,462.024506 150.640411,462.068451 150.105789,462.112396 
	C147.628677,467.477051 145.151581,472.841736 142.674469,478.206390 
	C141.402542,478.063080 140.130630,477.919769 138.727127,477.761658 
	C138.727127,475.646790 138.727127,473.767975 138.694183,471.112000 
	C139.278702,468.806458 139.649826,467.110138 140.556961,465.779144 
	C144.182877,460.459167 142.112259,456.384094 137.886383,452.322632 
	C133.552826,451.008179 129.350647,449.457886 125.075249,449.219177 
	C121.755463,449.033783 120.958092,451.404633 123.250397,454.421570 
	C122.883827,455.162476 122.558922,455.617004 122.234009,456.071533 
	C116.678589,455.031952 110.402954,455.455505 107.081131,449.527527 
	C105.822556,447.281494 105.283005,444.632538 104.660652,442.863495 
	C107.622849,439.050507 114.939888,444.387604 113.880859,436.014832 
	C113.837097,435.557129 113.845749,435.194855 114.351669,435.008972 
	C115.199821,433.742493 115.542046,432.661835 115.884262,431.581207 
	C117.483665,427.916229 119.083069,424.251282 120.896072,420.317810 
z"/>
<path fill="#567186" opacity="1.000000" stroke="none" 
	d="
M284.059906,467.607330 
	C281.283417,468.268768 280.523682,470.013824 281.338470,472.531586 
	C282.793091,477.026520 280.677765,476.935364 277.320190,476.003723 
	C273.721222,475.005035 271.156006,471.167603 266.762604,472.232788 
	C266.382263,472.324951 265.500366,470.930603 265.065704,470.112915 
	C263.420990,467.018890 261.886383,463.866577 260.262787,460.760986 
	C259.728394,459.738831 258.346771,458.608398 258.547821,457.840393 
	C260.110626,451.870789 255.327118,451.823303 251.946136,450.431274 
	C251.640503,450.305420 251.243103,450.186279 251.089462,449.939056 
	C247.089630,443.501404 241.438675,444.936523 235.053955,446.801392 
	C234.348221,446.241333 234.305740,445.564362 234.576691,444.775665 
	C242.897278,441.285980 250.678040,437.575317 256.377686,430.500336 
	C260.781952,437.383026 267.057587,440.585114 274.422119,442.094177 
	C269.359650,449.165039 269.342743,449.178528 274.816925,456.044617 
	C277.826202,459.819061 280.903625,463.539124 284.059906,467.607330 
z"/>
<path fill="#5D6773" opacity="1.000000" stroke="none" 
	d="
M193.595276,351.851776 
	C194.025131,355.914764 194.019196,359.985901 194.008911,364.990112 
	C194.004944,370.053589 193.836243,374.195160 194.106064,378.307892 
	C194.189896,379.585754 195.170578,381.199371 196.238861,381.953430 
	C202.752548,386.550964 209.390610,390.973877 216.027283,395.394897 
	C219.374130,397.624359 222.320480,401.720673 227.117859,398.106018 
	C223.415131,402.776581 219.811813,407.532288 215.937180,412.055573 
	C215.010590,413.137238 213.197433,413.969177 211.761993,414.017181 
	C205.468689,414.227478 199.164383,414.107788 192.638000,414.107788 
	C192.432449,413.015808 192.106354,412.087524 192.105270,411.158844 
	C192.083527,392.569244 192.080154,373.979584 192.152435,355.390198 
	C192.157013,354.212158 192.808792,353.036652 193.595276,351.851776 
z"/>
<path fill="#617C91" opacity="1.000000" stroke="none" 
	d="
M274.684052,441.917847 
	C267.057587,440.585114 260.781952,437.383026 256.563660,430.216736 
	C263.905457,420.468781 271.417572,411.221619 279.214661,402.169983 
	C280.992096,404.877808 282.192719,407.634827 284.045502,409.845123 
	C286.824890,413.160889 290.061829,416.093170 293.104218,419.188507 
	C287.051483,426.706177 280.998718,434.223816 274.684052,441.917847 
z"/>
<path fill="#6A8398" opacity="1.000000" stroke="none" 
	d="
M271.738159,362.219604 
	C272.343689,362.976471 272.760956,363.875397 272.962341,364.820312 
	C273.888489,369.165649 276.993347,370.847961 281.289764,370.541870 
	C284.681091,370.300232 288.163177,371.332550 291.308899,372.061340 
	C279.069855,371.104736 273.442749,377.069244 275.388428,388.626678 
	C275.650360,390.182709 275.197754,392.297516 274.259735,393.534668 
	C271.471802,397.211609 268.276520,400.579651 264.839996,404.047028 
	C256.662292,402.012665 253.265411,395.639404 249.807739,389.326660 
	C257.022003,380.345398 264.236237,371.364105 271.738159,362.219604 
z"/>
<path fill="#5D6773" opacity="1.000000" stroke="none" 
	d="
M159.927032,433.006134 
	C155.697327,433.302002 155.295731,431.288177 156.630157,427.881104 
	C156.920441,427.139923 156.169540,425.990936 155.554489,424.641052 
	C157.109055,420.467865 155.851654,418.315247 151.930588,416.931763 
	C148.869720,415.851776 146.041855,414.111420 143.110443,412.664551 
	C141.616425,411.446716 140.276108,409.915131 138.590073,409.089264 
	C136.410767,408.021729 133.355103,408.155273 131.744186,406.638184 
	C128.428741,403.515839 126.578949,398.974884 122.233795,396.199646 
	C125.798759,391.138855 130.902725,389.376068 136.395142,391.945435 
	C140.811325,394.011292 143.995468,393.543976 147.316147,390.350525 
	C148.353256,389.353119 149.833160,388.816193 151.511139,388.442078 
	C152.645294,390.642548 153.378647,392.469482 153.900085,394.551636 
	C151.451767,396.225250 149.143936,397.544159 146.996674,399.086578 
	C144.185440,401.106049 144.417709,405.459564 147.489594,407.051361 
	C151.088226,408.916107 154.834625,410.495728 158.647690,412.259491 
	C159.321381,410.461975 159.780762,409.236298 160.577042,408.093262 
	C161.361526,410.357635 161.809113,412.539337 162.295029,414.907806 
	C164.019394,412.903412 165.232147,411.493713 166.444901,410.084015 
	C166.432053,412.013855 166.419220,413.943695 166.700394,416.438141 
	C167.902435,418.457062 168.518921,420.629333 169.805405,421.151764 
	C170.954956,421.618652 172.843994,420.264648 174.406723,419.714111 
	C176.727448,420.717255 179.048157,421.720428 181.592087,423.301208 
	C180.686142,425.889496 175.924942,424.073395 176.650894,428.327637 
	C172.959091,426.739136 169.710861,425.031799 166.274643,423.890350 
	C165.152359,423.517548 163.540558,424.618347 161.804810,425.071472 
	C160.076004,426.572083 157.623840,427.905884 160.843460,430.301636 
	C160.555939,431.417419 160.241486,432.211761 159.927032,433.006134 
z"/>
<path fill="#567186" opacity="1.000000" stroke="none" 
	d="
M192.004822,425.403198 
	C199.619736,425.289368 207.241745,424.937347 214.846542,425.163574 
	C218.570526,425.274353 221.073288,424.225983 223.179062,421.184387 
	C225.341385,418.061157 227.941803,415.241180 230.948792,412.274811 
	C232.358093,413.481750 232.986191,414.890076 234.012238,415.890076 
	C238.134537,419.907776 241.671967,424.921326 248.164261,425.289154 
	C244.027954,430.909119 238.751465,434.595459 232.182388,434.762360 
	C218.798737,435.102448 205.396210,434.699829 192.143204,434.348999 
	C192.191574,431.197571 192.098206,428.300385 192.004822,425.403198 
z"/>
<path fill="#617C91" opacity="1.000000" stroke="none" 
	d="
M248.323944,424.972992 
	C241.671967,424.921326 238.134537,419.907776 234.012238,415.890076 
	C232.986191,414.890076 232.358093,413.481750 231.236542,412.108063 
	C237.009018,404.520416 243.092026,397.085846 249.491394,389.488953 
	C253.265411,395.639404 256.662292,402.012665 264.697388,404.360291 
	C259.411469,411.454315 253.867706,418.213654 248.323944,424.972992 
z"/>
<path fill="#626E7B" opacity="1.000000" stroke="none" 
	d="
M227.096786,398.088074 
	C222.320480,401.720673 219.374130,397.624359 216.027283,395.394897 
	C209.390610,390.973877 202.752548,386.550964 196.238861,381.953430 
	C195.170578,381.199371 194.189896,379.585754 194.106064,378.307892 
	C193.836243,374.195160 194.004944,370.053589 194.010742,365.453308 
	C196.802719,366.295380 199.902985,367.187531 202.316940,368.995850 
	C210.459839,375.095703 218.321274,381.569977 226.387680,387.774536 
	C227.759293,388.829559 229.610291,389.261322 231.619339,389.989929 
	C231.998856,389.998871 232.015488,390.015533 232.014618,390.370544 
	C232.030685,391.198944 232.047638,391.672302 232.064606,392.145691 
	C231.666550,392.720184 231.268494,393.294678 230.221786,393.967560 
	C228.742584,395.418274 227.912018,396.770599 227.081467,398.122894 
	C227.081467,398.122894 227.075729,398.070129 227.096786,398.088074 
z"/>
<path fill="#6A8398" opacity="1.000000" stroke="none" 
	d="
M293.396057,419.017456 
	C290.061829,416.093170 286.824890,413.160889 284.045502,409.845123 
	C282.192719,407.634827 280.992096,404.877808 279.332886,401.845093 
	C281.064911,398.363861 283.233948,396.165100 287.232117,397.753448 
	C288.041779,398.075134 289.191833,397.692993 290.146973,397.471497 
	C298.825470,395.459015 302.058472,388.228607 298.870667,378.028137 
	C303.956726,378.506104 302.331390,383.628815 304.431641,386.244659 
	C306.463806,388.775665 307.567841,392.051880 309.113434,395.066925 
	C311.127625,394.148132 312.300934,393.612915 313.834229,393.069977 
	C307.358795,401.657013 300.523346,410.251709 293.396057,419.017456 
z"/>
<path fill="#6B7785" opacity="1.000000" stroke="none" 
	d="
M160.056824,375.025208 
	C162.705765,368.682465 167.753052,365.484772 173.878296,366.268738 
	C179.706375,367.014679 184.366348,371.942719 184.947357,377.974548 
	C185.591064,384.657166 182.446838,389.405701 175.068237,391.675110 
	C173.183762,391.108398 171.486679,391.259125 170.714996,390.486115 
	C166.467850,386.231628 158.511734,384.405243 160.657379,375.764130 
	C160.703369,375.578949 160.267761,375.274200 160.056824,375.025208 
z"/>
<path fill="#626E7B" opacity="1.000000" stroke="none" 
	d="
M159.882202,375.309113 
	C160.267761,375.274200 160.703369,375.578949 160.657379,375.764130 
	C158.511734,384.405243 166.467850,386.231628 170.714996,390.486115 
	C171.486679,391.259125 173.183762,391.108398 174.702621,391.639313 
	C173.436844,393.531464 171.299988,394.922729 170.536346,396.856293 
	C168.927048,400.931122 168.037201,405.290039 166.648514,409.808197 
	C165.232147,411.493713 164.019394,412.903412 162.295029,414.907806 
	C161.809113,412.539337 161.361526,410.357635 160.601181,407.719421 
	C161.674881,402.336029 163.108612,397.421478 164.399918,392.469757 
	C164.608398,391.670319 164.481155,390.314667 163.969177,389.924377 
	C163.429291,389.512787 162.100967,389.679382 161.364243,390.065216 
	C158.887482,391.362305 156.520798,392.869568 154.112000,394.296387 
	C153.378647,392.469482 152.645294,390.642548 151.894073,388.354492 
	C151.964188,387.753632 152.021683,387.531464 152.144531,387.485992 
	C157.684235,385.436920 160.284973,381.527802 159.882202,375.309113 
z"/>
<path fill="#38414E" opacity="1.000000" stroke="none" 
	d="
M205.576263,484.041077 
	C202.180725,484.605286 198.403580,485.066833 194.626450,485.528412 
	C194.598709,485.899872 194.570984,486.271332 194.543259,486.642792 
	C197.117676,486.869080 199.692108,487.095367 203.801926,487.456635 
	C201.717712,488.347839 200.935913,489.017059 200.284302,488.908081 
	C194.811096,487.992493 193.208511,490.583221 193.939499,495.557159 
	C194.106232,496.691681 193.965530,497.871399 193.972000,499.485168 
	C193.966248,512.905762 194.145157,525.875854 193.847260,538.834961 
	C193.732346,543.833984 195.818771,545.180664 200.334763,545.109131 
	C211.136810,544.938171 221.942932,545.026245 233.191879,544.984497 
	C233.223236,545.518188 232.813278,546.563049 232.396606,546.565735 
	C219.109604,546.651428 205.821960,546.636169 192.274811,546.636169 
	C192.274811,525.584656 192.274811,504.987000 192.274811,483.938385 
	C196.632080,483.938385 200.913376,483.938385 205.576263,484.041077 
z"/>
<path fill="#38414E" opacity="1.000000" stroke="none" 
	d="
M435.166656,504.361877 
	C441.241455,504.018616 447.479767,503.935516 453.711304,504.103577 
	C456.734070,504.185150 457.015656,502.859314 456.135712,500.130493 
	C457.321106,501.286865 458.516479,502.836609 460.431793,505.319763 
	C464.802399,492.042694 468.670441,480.292297 472.760132,468.268738 
	C472.540222,470.806885 472.437012,473.724243 471.595337,476.410156 
	C468.785889,485.375427 465.711914,494.257812 462.447510,504.047058 
	C468.165222,504.047058 472.797211,504.293579 477.370361,503.883667 
	C478.601013,503.773376 480.131897,501.860321 480.700470,500.443848 
	C482.715088,495.425446 484.372833,490.263763 486.504608,485.068726 
	C485.121979,490.870728 483.551880,496.812286 481.564636,502.610870 
	C481.110931,503.934662 479.231689,505.663422 477.983582,505.683929 
	C464.665009,505.902466 451.341278,505.835327 438.019440,505.763947 
	C437.120270,505.759125 436.224640,505.087067 435.166656,504.361877 
z"/>
<path fill="#6A8398" opacity="1.000000" stroke="none" 
	d="
M342.302948,358.876587 
	C342.482178,357.351105 342.948792,355.651337 343.685974,352.965851 
	C322.591339,352.965851 301.643982,352.965851 280.206177,352.938354 
	C281.047272,352.447418 282.376892,351.586304 283.710602,351.579956 
	C304.592834,351.480408 325.475555,351.488037 346.358185,351.497589 
	C346.791687,351.497803 347.225067,351.814728 348.074554,352.146271 
	C346.142944,354.455353 344.366608,356.578827 342.302948,358.876587 
z"/>
<path fill="#232B38" opacity="1.000000" stroke="none" 
	d="
M847.003967,480.616913 
	C843.281067,479.224640 842.968567,478.783295 840.742554,472.000305 
	C836.308228,472.340759 831.907471,472.720520 827.500366,473.003021 
	C824.284424,473.209167 823.564941,474.934479 824.404968,477.732849 
	C825.259033,480.577911 826.118958,483.421234 826.978394,486.660889 
	C824.941467,482.285675 822.902527,477.514801 820.625305,472.186554 
	C828.356262,470.755432 834.832642,469.556519 841.034546,468.408417 
	C843.119263,472.640137 845.000977,476.459717 847.003967,480.616913 
z"/>
<path fill="#626E7B" opacity="1.000000" stroke="none" 
	d="
M191.593323,425.347504 
	C192.098206,428.300385 192.191574,431.197571 191.807892,434.263184 
	C186.560989,432.430695 181.791168,430.429810 177.021347,428.428894 
	C175.924942,424.073395 180.686142,425.889496 181.901596,423.515961 
	C185.052536,423.865997 188.117188,424.578918 191.593323,425.347504 
z"/>
<path fill="#626E7B" opacity="1.000000" stroke="none" 
	d="
M231.989670,389.989777 
	C231.988373,381.038605 231.963837,372.096283 232.034256,363.154694 
	C232.046799,361.562988 232.453476,359.974426 233.000366,358.219482 
	C233.377533,368.453552 233.432526,378.852539 233.052155,389.634644 
	C232.416367,390.016998 232.215927,390.016266 232.015488,390.015533 
	C232.015488,390.015533 231.998856,389.998871 231.989670,389.989777 
z"/>
<path fill="#232B38" opacity="1.000000" stroke="none" 
	d="
M865.628418,489.950684 
	C864.774109,490.350525 863.505920,491.031158 862.379944,490.846191 
	C858.132507,490.148438 853.931396,489.169159 849.488098,488.248718 
	C850.010986,487.295685 850.524231,486.360107 851.140015,485.071106 
	C855.921631,486.423126 860.600769,488.128601 865.628418,489.950684 
z"/>
<path fill="#232B38" opacity="1.000000" stroke="none" 
	d="
M887.648926,484.072571 
	C887.982178,485.525757 887.982178,487.102570 887.982178,488.360565 
	C882.813599,489.124420 877.700256,489.880127 872.314331,490.372040 
	C877.132996,488.137573 882.224365,486.166901 887.648926,484.072571 
z"/>
<path fill="#505A66" opacity="1.000000" stroke="none" 
	d="
M192.319077,472.392273 
	C191.892700,471.891296 191.913437,471.641296 191.977844,471.206238 
	C197.897003,471.311707 203.804886,471.604919 209.840027,472.259705 
	C204.222809,472.627686 198.478317,472.634094 192.319077,472.392273 
z"/>
<path fill="#626E7B" opacity="1.000000" stroke="none" 
	d="
M174.243073,419.483032 
	C172.843994,420.264648 170.954956,421.618652 169.805405,421.151764 
	C168.518921,420.629333 167.902435,418.457062 166.991455,416.602173 
	C169.352142,417.218384 171.715790,418.235168 174.243073,419.483032 
z"/>
<path fill="#38414E" opacity="1.000000" stroke="none" 
	d="
M167.364609,490.485046 
	C165.743652,490.530853 163.270172,490.752045 162.643784,489.781281 
	C161.192047,487.531525 162.739700,486.195862 165.597443,486.004517 
	C166.433472,487.372314 166.892334,488.745636 167.364609,490.485046 
z"/>
<path fill="#6A8398" opacity="1.000000" stroke="none" 
	d="
M329.306305,374.908691 
	C329.181641,372.786682 328.023956,369.650757 332.703339,370.029053 
	C331.942566,371.607880 330.766388,373.176910 329.306305,374.908691 
z"/>
<path fill="#38414E" opacity="1.000000" stroke="none" 
	d="
M233.500870,512.651917 
	C232.931366,510.874817 232.496368,508.716675 232.092010,506.134766 
	C232.626907,507.897614 233.131149,510.084259 233.500870,512.651917 
z"/>
<path fill="#38414E" opacity="1.000000" stroke="none" 
	d="
M232.050720,529.307373 
	C232.389969,528.647400 232.725327,528.339172 233.296906,527.998413 
	C233.609314,529.385254 233.685455,530.804688 233.639465,532.635620 
	C233.027161,531.917725 232.536987,530.788452 232.050720,529.307373 
z"/>
<path fill="#5D6773" opacity="1.000000" stroke="none" 
	d="
M227.363861,397.956940 
	C227.912018,396.770599 228.742584,395.418274 229.989624,394.095551 
	C229.486176,395.347076 228.566223,396.569031 227.363861,397.956940 
z"/>
<path fill="#567186" opacity="1.000000" stroke="none" 
	d="
M289.094421,473.631653 
	C288.297394,474.078674 287.415497,474.244873 286.533630,474.411072 
	C286.568024,473.698334 286.602417,472.985596 286.913513,472.089355 
	C287.796692,472.387512 288.403168,472.869171 289.094421,473.631653 
z"/>
<path fill="#38414E" opacity="1.000000" stroke="none" 
	d="
M429.024078,497.339478 
	C429.907684,497.911041 430.870880,498.797760 431.817322,500.051941 
	C430.901581,499.497833 430.002594,498.576233 429.024078,497.339478 
z"/>
<path fill="#6A8398" opacity="1.000000" stroke="none" 
	d="
M323.401123,382.022034 
	C323.794952,381.107391 324.466705,380.057739 325.507690,378.981018 
	C325.144348,379.931610 324.411682,380.909332 323.401123,382.022034 
z"/>
<path fill="#6A8398" opacity="1.000000" stroke="none" 
	d="
M316.250793,390.777863 
	C316.512726,389.991119 317.044769,389.050598 317.944702,388.102966 
	C317.715332,388.938599 317.118103,389.781342 316.250793,390.777863 
z"/>
<path fill="#6A8398" opacity="1.000000" stroke="none" 
	d="
M326.212280,378.708191 
	C326.460632,377.940826 326.973663,377.020874 327.839661,376.080444 
	C327.620728,376.891876 327.048828,377.723755 326.212280,378.708191 
z"/>
<path fill="#303945" opacity="1.000000" stroke="none" 
	d="
M115.630539,431.789917 
	C115.542046,432.661835 115.199821,433.742493 114.501389,434.906921 
	C114.555710,433.993347 114.966255,432.996002 115.630539,431.789917 
z"/>
<path fill="#38414E" opacity="1.000000" stroke="none" 
	d="
M216.864014,486.711914 
	C216.307922,486.533081 215.696228,486.061279 215.051163,485.272766 
	C215.614685,485.443665 216.211548,485.931305 216.864014,486.711914 
z"/>
<path fill="#6A8398" opacity="1.000000" stroke="none" 
	d="
M321.525513,384.167633 
	C321.646027,383.547333 322.055847,382.834534 322.823883,382.120758 
	C322.726349,382.771576 322.270599,383.423340 321.525513,384.167633 
z"/>
<path fill="#6A8398" opacity="1.000000" stroke="none" 
	d="
M339.517151,362.157227 
	C339.643677,361.538055 340.062225,360.822449 340.836884,360.083374 
	C340.731720,360.726868 340.270447,361.393829 339.517151,362.157227 
z"/>
<path fill="#232B38" opacity="1.000000" stroke="none" 
	d="
M851.148315,484.488464 
	C850.560486,484.367432 849.837585,483.976746 849.077942,483.235168 
	C849.698547,483.329132 850.355835,483.773956 851.148315,484.488464 
z"/>
<path fill="#232B38" opacity="1.000000" stroke="none" 
	d="
M890.554993,480.573792 
	C890.445007,481.212677 890.060913,482.033508 889.305298,482.915649 
	C889.382812,482.236572 889.831848,481.496155 890.554993,480.573792 
z"/>
<path fill="#4A677D" opacity="1.000000" stroke="none" 
	d="
M342.020050,538.653809 
	C341.454132,538.432861 340.809570,537.919922 340.214539,537.051880 
	C340.823181,537.251831 341.382294,537.806824 342.020050,538.653809 
z"/>
<path fill="#4A677D" opacity="1.000000" stroke="none" 
	d="
M339.033997,534.640747 
	C338.460266,534.431458 337.807312,533.929260 337.193939,533.071777 
	C337.807251,533.260193 338.381012,533.804077 339.033997,534.640747 
z"/>
<path fill="#4A677D" opacity="1.000000" stroke="none" 
	d="
M329.985687,523.685608 
	C329.425903,523.473938 328.779663,522.970947 328.149200,522.119141 
	C328.743073,522.311646 329.321136,522.853027 329.985687,523.685608 
z"/>
<path fill="#6B7785" opacity="1.000000" stroke="none" 
	d="
M232.014618,390.370544 
	C232.215927,390.016266 232.416367,390.016998 232.918289,390.025574 
	C233.036301,390.644989 232.852814,391.256592 232.366974,392.006958 
	C232.047638,391.672302 232.030685,391.198944 232.014618,390.370544 
z"/>
<path fill="#6A8398" opacity="1.000000" stroke="none" 
	d="
M320.272278,385.886963 
	C320.224365,385.473389 320.434998,384.901733 320.945648,384.223450 
	C321.007385,384.654144 320.769104,385.191528 320.272278,385.886963 
z"/>
<path fill="#4A677D" opacity="1.000000" stroke="none" 
	d="
M343.347351,540.447510 
	C342.970093,540.348206 342.528900,539.956970 342.072876,539.234680 
	C342.466492,539.320923 342.874969,539.738220 343.347351,540.447510 
z"/>
<path fill="#4A677D" opacity="1.000000" stroke="none" 
	d="
M340.283356,536.534302 
	C339.921844,536.406067 339.504272,535.978394 339.078522,535.221130 
	C339.455994,535.339294 339.841644,535.787109 340.283356,536.534302 
z"/>
<path fill="#4A677D" opacity="1.000000" stroke="none" 
	d="
M336.281433,531.516724 
	C335.924164,531.416199 335.496674,531.030640 335.032074,530.330688 
	C335.400391,530.421387 335.805817,530.826538 336.281433,531.516724 
z"/>
<path fill="#4A677D" opacity="1.000000" stroke="none" 
	d="
M332.240417,526.565552 
	C331.892303,526.461426 331.478333,526.074768 331.020752,525.382996 
	C331.376251,525.479614 331.775421,525.881226 332.240417,526.565552 
z"/>
<path fill="#4A677D" opacity="1.000000" stroke="none" 
	d="
M326.335205,519.475586 
	C325.955719,519.367676 325.518341,518.959229 325.059082,518.219238 
	C325.450562,518.316833 325.863953,518.745972 326.335205,519.475586 
z"/>
<path fill="#6A8398" opacity="1.000000" stroke="none" 
	d="
M338.295532,363.944824 
	C338.236389,363.523407 338.437256,362.932404 338.942261,362.224243 
	C339.016083,362.663147 338.785828,363.219208 338.295532,363.944824 
z"/>
<path fill="#6A8398" opacity="1.000000" stroke="none" 
	d="
M335.220398,367.708923 
	C335.245209,367.316101 335.528656,366.781799 336.119385,366.162964 
	C336.110809,366.574799 335.794891,367.071136 335.220398,367.708923 
z"/>
<path fill="#4A677D" opacity="1.000000" stroke="none" 
	d="
M328.152893,521.614014 
	C327.916840,521.691162 327.599976,521.492920 327.215088,521.011230 
	C327.455383,520.931458 327.763733,521.135071 328.152893,521.614014 
z"/>
<path fill="#4A677D" opacity="1.000000" stroke="none" 
	d="
M333.118042,527.645752 
	C332.885712,527.710754 332.581482,527.500244 332.217560,527.007874 
	C332.453949,526.940735 332.750031,527.155457 333.118042,527.645752 
z"/>
<path fill="#4A677D" opacity="1.000000" stroke="none" 
	d="
M334.044159,528.699036 
	C333.836121,528.755493 333.545563,528.546509 333.164795,528.076965 
	C333.370300,528.022095 333.665955,528.227844 334.044159,528.699036 
z"/>
<path fill="#4A677D" opacity="1.000000" stroke="none" 
	d="
M327.212219,520.568665 
	C326.958954,520.650085 326.633423,520.453674 326.271973,519.959167 
	C326.537354,519.871033 326.838654,520.080933 327.212219,520.568665 
z"/>
<path fill="#4A677D" opacity="1.000000" stroke="none" 
	d="
M337.208344,532.559082 
	C336.961029,532.645020 336.632019,532.457275 336.253815,531.974976 
	C336.511963,531.882080 336.819305,532.083740 337.208344,532.559082 
z"/>
<path fill="#F9FBFB" opacity="1.000000" stroke="none" 
	d="
M663.997375,410.805603 
	C674.149292,414.644745 678.296143,422.181091 676.347229,433.249969 
	C674.701721,442.595673 667.997803,447.718994 657.235291,447.771057 
	C648.608643,447.812775 639.981567,447.779480 630.854797,447.779480 
	C630.854797,435.428711 630.854797,423.341858 631.445801,410.846497 
	C642.690308,410.560486 653.343872,410.683044 663.997375,410.805603 
z"/>
<path fill="#232B38" opacity="1.000000" stroke="none" 
	d="
M663.887573,410.424683 
	C653.343872,410.683044 642.690308,410.560486 631.575928,410.419006 
	C632.065430,409.933502 633.011414,409.072052 633.966614,409.061737 
	C643.209717,408.962006 652.454468,408.982971 661.698181,409.052338 
	C662.393799,409.057526 663.084717,409.698395 663.887573,410.424683 
z"/>
<path fill="#FDFDFD" opacity="1.000000" stroke="none" 
	d="
M783.810547,418.204285 
	C796.858215,433.325562 797.503113,462.759644 785.360352,478.161835 
	C771.906616,495.226868 744.178955,493.539368 732.948364,474.972107 
	C722.833496,458.249481 724.618225,430.980530 736.663940,418.203156 
	C749.098450,405.013397 770.927917,404.891357 783.810547,418.204285 
z"/>
<path fill="#232B38" opacity="1.000000" stroke="none" 
	d="
M841.467102,480.449158 
	C841.522949,480.415649 841.411255,480.482635 841.467102,480.449158 
z"/>
<path fill="#FDFDFD" opacity="1.000000" stroke="none" 
	d="
M1052.738037,462.837463 
	C1042.086670,463.006378 1031.787720,463.006378 1020.454529,463.006378 
	C1025.940918,445.809692 1031.245728,429.182343 1037.026123,411.063995 
	C1038.207153,414.698547 1038.982666,417.049377 1039.735474,419.407471 
	C1043.879395,432.387878 1048.029907,445.366241 1052.140259,458.357269 
	C1052.582397,459.754700 1052.779663,461.229584 1052.738037,462.837463 
z"/>
<path fill="#F9FBFB" opacity="1.000000" stroke="none" 
	d="
M520.880371,463.108643 
	C511.754913,463.106873 503.112183,463.106873 494.090454,463.106873 
	C499.565491,445.880798 504.926666,429.012970 510.664062,410.961456 
	C516.372559,428.756744 521.753357,445.530579 527.392700,463.110443 
	C525.129761,463.110443 523.246399,463.110443 520.880371,463.108643 
z"/>
<path fill="#F9FBFB" opacity="1.000000" stroke="none" 
	d="
M185.017426,465.889862 
	C177.888641,468.967773 170.759857,472.045685 163.343491,475.247772 
	C162.066223,470.995758 160.797256,466.771332 159.315308,462.253601 
	C160.591187,457.651123 165.293869,453.925812 169.289673,453.904419 
	C176.546692,453.865570 183.803726,453.834534 191.983032,453.812439 
	C206.601593,453.824646 220.297882,453.824677 233.994186,453.824677 
	C243.893906,455.597626 251.048965,461.378052 257.070374,469.124176 
	C264.398895,478.551758 272.079132,487.705200 279.500519,497.061890 
	C281.363251,499.410370 283.061615,500.725494 286.493927,500.436829 
	C292.986176,499.890808 297.554352,503.211334 300.064880,510.120117 
	C299.754028,513.894226 299.309998,516.906250 298.865997,519.918335 
	C298.865997,519.918335 298.943695,519.950378 298.709717,520.019714 
	C298.337097,520.398315 298.198425,520.707520 298.059784,521.016785 
	C298.059784,521.016785 297.997528,521.011963 297.770996,521.192871 
	C297.256165,521.857971 296.967896,522.342102 296.679626,522.826233 
	C296.679626,522.826233 296.845306,522.858093 296.557922,522.855103 
	C296.068756,523.153320 295.867035,523.454529 295.665283,523.755737 
	C295.665283,523.755737 295.599976,523.670654 295.546753,523.660889 
	C290.290802,526.523499 284.965546,527.219299 280.051331,523.380981 
	C275.242004,519.624512 273.919830,514.617493 275.728577,508.632538 
	C276.097565,507.411682 275.170746,505.401031 274.234772,504.245789 
	C265.220001,493.118622 256.141846,482.040894 246.939316,471.068512 
	C242.417419,465.676971 236.513748,463.003937 229.379318,463.053741 
	C218.219833,463.131653 207.059540,463.091339 195.049530,463.113586 
	C191.138794,464.047333 188.078110,464.968597 185.017426,465.889862 
M291.930145,509.615845 
	C288.883118,506.927734 285.456116,506.864685 283.396606,510.154724 
	C282.376892,511.783630 282.935150,515.356445 284.148041,517.094910 
	C284.974030,518.278687 288.519104,518.626770 290.234985,517.900146 
	C293.475403,516.527771 293.932465,513.495056 291.930145,509.615845 
z"/>
<path fill="#505A66" opacity="1.000000" stroke="none" 
	d="
M185.003265,466.295105 
	C188.078110,464.968597 191.138794,464.047333 194.586975,463.201965 
	C193.770355,464.190033 192.566254,465.102173 191.150894,466.174377 
	C191.398895,467.385834 191.690598,468.810822 191.981812,470.623413 
	C188.881897,470.821014 185.009705,471.884552 185.003265,466.295105 
z"/>
<path fill="#4F677B" opacity="1.000000" stroke="none" 
	d="
M233.936584,453.509277 
	C220.297882,453.824677 206.601593,453.824646 192.444107,453.733765 
	C191.987198,450.782898 191.991486,447.922852 192.457642,444.596741 
	C205.655121,444.113312 218.390823,444.076904 231.126282,444.113770 
	C232.172684,444.116791 233.217636,444.617767 234.263260,444.887360 
	C234.305740,445.564362 234.348221,446.241333 234.696899,446.956726 
	C234.724609,447.898315 234.662125,449.417694 234.132156,449.603455 
	C230.970947,450.711548 233.381653,451.981689 233.936584,453.509277 
z"/>
<path fill="#4A677D" opacity="1.000000" stroke="none" 
	d="
M299.246094,519.947266 
	C299.309998,516.906250 299.754028,513.894226 300.214600,510.445923 
	C301.566101,513.290588 302.901093,516.571472 304.523163,520.557922 
	C302.335052,520.297974 300.980591,520.137024 299.246094,519.947266 
z"/>
<path fill="#4A677D" opacity="1.000000" stroke="none" 
	d="
M296.981995,522.755127 
	C296.967896,522.342102 297.256165,521.857971 297.786804,521.219849 
	C297.780853,521.605225 297.532593,522.144653 296.981995,522.755127 
z"/>
<path fill="#4A677D" opacity="1.000000" stroke="none" 
	d="
M295.961304,523.720215 
	C295.867035,523.454529 296.068756,523.153320 296.541016,522.772461 
	C296.626770,523.023438 296.442047,523.354065 295.961304,523.720215 
z"/>
<path fill="#4A677D" opacity="1.000000" stroke="none" 
	d="
M298.270325,520.879822 
	C298.198425,520.707520 298.337097,520.398315 298.711304,519.977722 
	C298.791504,520.158569 298.636200,520.450684 298.270325,520.879822 
z"/>
<path fill="#F9FBFB" opacity="1.000000" stroke="none" 
	d="
M137.986206,452.651733 
	C142.112259,456.384094 144.182877,460.459167 140.556961,465.779144 
	C139.649826,467.110138 139.278702,468.806458 138.581070,470.656433 
	C137.347290,473.540466 136.349854,476.192566 134.958191,478.618500 
	C134.447769,479.508240 132.990036,480.351715 131.989487,480.323639 
	C130.984070,480.295380 129.560974,479.383789 129.095398,478.466309 
	C126.239708,472.838715 123.451546,467.163208 121.020958,461.344879 
	C120.524536,460.156586 121.645470,458.292603 122.127441,456.405823 
	C122.558922,455.617004 122.883827,455.162476 123.554672,454.138428 
	C128.595795,453.263214 133.291000,452.957458 137.986206,452.651733 
z"/>
<path fill="#F9FBFB" opacity="1.000000" stroke="none" 
	d="
M163.956696,503.092651 
	C164.231873,505.084656 164.416107,506.680969 164.756424,509.629608 
	C157.812805,505.567902 152.092758,502.354523 146.520981,498.901886 
	C144.053879,497.373077 144.545212,492.602722 147.314423,491.139038 
	C150.820389,489.285980 154.491699,487.745758 158.723267,485.776703 
	C160.479279,491.554443 162.172516,497.125702 163.956696,503.092651 
z"/>
<path fill="#F9FBFB" opacity="1.000000" stroke="none" 
	d="
M142.595703,478.572784 
	C145.151581,472.841736 147.628677,467.477051 150.105789,462.112396 
	C150.640411,462.068451 151.175034,462.024506 151.709656,461.980560 
	C153.144928,466.757446 154.580200,471.534363 156.158264,476.611816 
	C155.220261,481.814270 150.285248,481.324371 147.136459,483.260498 
	C145.339905,484.365143 142.866333,484.368652 139.901581,485.051270 
	C141.145386,482.144501 141.831161,480.541840 142.595703,478.572784 
z"/>
<path fill="#F9FBFB" opacity="1.000000" stroke="none" 
	d="
M234.576691,444.775665 
	C233.217636,444.617767 232.172684,444.116791 231.126282,444.113770 
	C218.390823,444.076904 205.655121,444.113312 192.458038,444.214111 
	C184.042389,444.237396 176.088150,444.185333 168.134079,444.114319 
	C163.048538,444.068939 158.783676,438.660919 159.927078,433.370483 
	C160.241486,432.211761 160.555939,431.417419 160.984558,429.961975 
	C161.450027,427.882324 161.801331,426.463776 162.152618,425.045197 
	C163.540558,424.618347 165.152359,423.517548 166.274643,423.890350 
	C169.710861,425.031799 172.959091,426.739136 176.650894,428.327637 
	C181.791168,430.429810 186.560989,432.430695 191.666138,434.517395 
	C205.396210,434.699829 218.798737,435.102448 232.182388,434.762360 
	C238.751465,434.595459 244.027954,430.909119 248.164261,425.289154 
	C253.867706,418.213654 259.411469,411.454315 265.097839,404.381714 
	C268.276520,400.579651 271.471802,397.211609 274.259735,393.534668 
	C275.197754,392.297516 275.650360,390.182709 275.388428,388.626678 
	C273.442749,377.069244 279.069855,371.104736 291.442871,372.431824 
	C294.026703,374.247498 296.180450,375.955017 298.602417,377.845337 
	C302.058472,388.228607 298.825470,395.459015 290.146973,397.471497 
	C289.191833,397.692993 288.041779,398.075134 287.232117,397.753448 
	C283.233948,396.165100 281.064911,398.363861 279.047913,401.649597 
	C271.417572,411.221619 263.905457,420.468781 256.207397,429.999573 
	C250.678040,437.575317 242.897278,441.285980 234.576691,444.775665 
M282.623260,386.884552 
	C284.783325,387.931854 286.897369,389.611542 289.121918,389.773468 
	C290.327606,389.861267 292.600464,387.483276 292.804321,385.999420 
	C293.049683,384.213409 292.057190,381.751740 290.746918,380.427094 
	C289.800323,379.470184 286.689270,379.097382 285.902496,379.862122 
	C284.242340,381.475769 283.473450,384.006317 282.623260,386.884552 
z"/>
<path fill="#F9FBFB" opacity="1.000000" stroke="none" 
	d="
M139.014755,445.344238 
	C135.944626,445.643311 132.942627,445.353668 130.004944,445.667023 
	C126.155731,446.077606 123.620171,445.225800 121.760750,441.373810 
	C120.620232,439.011047 120.272957,437.383026 121.478500,435.111511 
	C123.254860,431.764496 124.751633,428.269073 126.496277,424.479614 
	C128.390854,422.046478 130.156647,419.970612 131.922424,417.894775 
	C133.599686,420.080841 135.427948,422.170441 136.905701,424.483948 
	C138.056351,426.285400 138.566986,428.495575 139.717545,430.297089 
	C142.980225,435.405823 143.513718,440.285736 139.014755,445.344238 
z"/>
<path fill="#F9FBFB" opacity="1.000000" stroke="none" 
	d="
M142.781891,412.727875 
	C146.041855,414.111420 148.869720,415.851776 151.930588,416.931763 
	C155.851654,418.315247 157.109055,420.467865 155.207092,424.636108 
	C154.017365,428.561432 152.831329,432.102905 151.284637,436.721344 
	C150.117996,434.928101 149.268585,433.899078 148.718658,432.729309 
	C146.336792,427.662659 143.888382,422.615997 141.827148,417.418121 
	C141.327026,416.156921 142.207642,414.348175 142.781891,412.727875 
z"/>
<path fill="#242D3A" opacity="1.000000" stroke="none" 
	d="
M579.208374,394.042572 
	C583.658691,393.362701 585.127197,394.758759 585.104431,399.090118 
	C584.931213,432.064392 584.995789,465.040009 585.034241,498.015106 
	C585.037598,500.879059 585.179749,503.133087 581.043030,503.131042 
	C577.013550,503.129059 576.949402,501.069458 576.954285,498.103302 
	C577.008301,464.961700 576.965820,431.819885 577.065430,398.678467 
	C577.070007,397.143555 578.171692,395.611938 579.208374,394.042572 
z"/>
<path fill="#252E3B" opacity="1.000000" stroke="none" 
	d="
M590.009766,449.000000 
	C589.929321,467.294525 589.854431,485.089081 589.723938,502.883240 
	C589.721680,503.192810 589.049438,503.497467 588.685364,503.808167 
	C586.550049,501.027222 586.102844,399.069427 588.696106,393.066925 
	C590.900391,398.276184 589.786133,402.788086 589.967529,407.070038 
	C590.164551,411.720703 590.012451,416.386139 590.012085,421.045135 
	C590.011658,425.537750 590.010315,430.030365 590.009949,434.522980 
	C590.009521,439.181976 590.009766,443.841003 590.009766,449.000000 
z"/>
<path fill="#303945" opacity="1.000000" stroke="none" 
	d="
M137.886383,452.322632 
	C133.291000,452.957458 128.595795,453.263214 123.596321,453.852112 
	C120.958092,451.404633 121.755463,449.033783 125.075249,449.219177 
	C129.350647,449.457886 133.552826,451.008179 137.886383,452.322632 
z"/>
<path fill="#F9FBFB" opacity="1.000000" stroke="none" 
	d="
M153.900085,394.551636 
	C156.520798,392.869568 158.887482,391.362305 161.364243,390.065216 
	C162.100967,389.679382 163.429291,389.512787 163.969177,389.924377 
	C164.481155,390.314667 164.608398,391.670319 164.399918,392.469757 
	C163.108612,397.421478 161.674881,402.336029 160.264297,407.636780 
	C159.780762,409.236298 159.321381,410.461975 158.647690,412.259491 
	C154.834625,410.495728 151.088226,408.916107 147.489594,407.051361 
	C144.417709,405.459564 144.185440,401.106049 146.996674,399.086578 
	C149.143936,397.544159 151.451767,396.225250 153.900085,394.551636 
z"/>
<path fill="#505A66" opacity="1.000000" stroke="none" 
	d="
M161.804810,425.071472 
	C161.801331,426.463776 161.450027,427.882324 160.957611,429.640564 
	C157.623840,427.905884 160.076004,426.572083 161.804810,425.071472 
z"/>
<path fill="#4A677D" opacity="1.000000" stroke="none" 
	d="
M292.142242,509.963837 
	C293.932465,513.495056 293.475403,516.527771 290.234985,517.900146 
	C288.519104,518.626770 284.974030,518.278687 284.148041,517.094910 
	C282.935150,515.356445 282.376892,511.783630 283.396606,510.154724 
	C285.456116,506.864685 288.883118,506.927734 292.142242,509.963837 
z"/>
<path fill="#6A8398" opacity="1.000000" stroke="none" 
	d="
M282.481079,386.522644 
	C283.473450,384.006317 284.242340,381.475769 285.902496,379.862122 
	C286.689270,379.097382 289.800323,379.470184 290.746918,380.427094 
	C292.057190,381.751740 293.049683,384.213409 292.804321,385.999420 
	C292.600464,387.483276 290.327606,389.861267 289.121918,389.773468 
	C286.897369,389.611542 284.783325,387.931854 282.481079,386.522644 
z"/>
</svg>